<?xml version="1.0" encoding="UTF-8" standalone="no"?>
<!-- Created with Inkscape (http://www.inkscape.org/) -->

<svg
   width="185cm"
   height="55.203121cm"
   viewBox="0 0 1850 552.03122"
   version="1.1"
   id="svg5"
   xml:space="preserve"
   sodipodi:docname="logo-samvida.svg"
   inkscape:version="1.3 (0e150ed6c4, 2023-07-21)"
   inkscape:export-filename="../logo-samvida-8x8-300dpi.jpg"
   inkscape:export-xdpi="300"
   inkscape:export-ydpi="300"
   xmlns:inkscape="http://www.inkscape.org/namespaces/inkscape"
   xmlns:sodipodi="http://sodipodi.sourceforge.net/DTD/sodipodi-0.dtd"
   xmlns="http://www.w3.org/2000/svg"
   xmlns:svg="http://www.w3.org/2000/svg"><sodipodi:namedview
     id="namedview7"
     pagecolor="#ffffff"
     bordercolor="#000000"
     borderopacity="0.25"
     inkscape:showpageshadow="2"
     inkscape:pageopacity="0.0"
     inkscape:pagecheckerboard="0"
     inkscape:deskcolor="#d1d1d1"
     inkscape:document-units="cm"
     showgrid="false"
     inkscape:zoom="0.028284271"
     inkscape:cx="2580.9398"
     inkscape:cy="724.78445"
     inkscape:window-width="1366"
     inkscape:window-height="699"
     inkscape:window-x="0"
     inkscape:window-y="32"
     inkscape:window-maximized="1"
     inkscape:current-layer="layer1" /><defs
     id="defs2" /><g
     inkscape:label="Layer 1"
     inkscape:groupmode="layer"
     id="layer1"
     transform="translate(-1600.3735,326.76312)"><rect
       style="fill:none;fill-opacity:1;stroke:#6c6c6c;stroke-width:0"
       id="rect2959-2-3"
       width="1846.0936"
       height="552.03119"
       x="1600.3734"
       y="-326.76312"
       inkscape:export-filename="../61b0ac26/logo_MV_HD_bgW_H.png"
       inkscape:export-xdpi="96"
       inkscape:export-ydpi="96" /><g
       id="g3338"
       transform="translate(63.02129,-51.873998)"><path
         id="path376-3-62-9-9"
         style="fill:#004f94;fill-opacity:1;stroke:#6c6c6c;stroke-width:0"
         d="m 1909.3133,-130.46935 c -1.6469,4.19891 -1.893,4.62658 -3.9703,9.45423 -16.7891,39.017546 -55.402,65.074839 -98.8752,65.106139 -18.592,-0.01658 -36.8207,-4.843782 -52.9336,-13.955163 -2.097,-1.185785 -4.1582,-2.444133 -6.1796,-3.773891 1.0152,2.089764 2.1073,4.126708 3.272,6.10812 15.6431,26.612129 44.3774,43.206713 75.6773,43.208868 48.4444,-3.35e-4 87.7161,-39.124395 87.7156,-87.385923 -2e-4,-4.38175 -0.08,-6.32603 -0.6344,-9.66441 -0.4888,-2.94208 -1.6916,-6.48977 -4.0718,-9.09797 z"
         sodipodi:nodetypes="cscscsccsc"
         inkscape:export-filename="../74e7f65b/logo_MV_HD.png"
         inkscape:export-xdpi="96"
         inkscape:export-ydpi="96" /><path
         id="path376-7-4"
         style="fill:#004f94;fill-opacity:1;stroke:#6c6c6c;stroke-width:0"
         d="m 1785.0303,-214.86024 a 126.8958,126.8958 0 0 0 -112.9044,126.032306 126.8958,126.8958 0 0 0 126.8964,126.89645 126.8958,126.8958 0 0 0 126.8944,-126.89645 126.8958,126.8958 0 0 0 -0.4505,-10.603026 106.85295,106.85295 0 0 1 -105.8296,92.4396609 106.85295,106.85295 0 0 1 -106.8535,-106.8514309 106.85295,106.85295 0 0 1 72.2472,-101.01751 z" /><path
         id="path376-3-0-3-7"
         style="fill:#007c52;fill-opacity:1;stroke:#6c6c6c;stroke-width:0"
         d="m 1698.2157,-186.65102 a 208.7771,208.7771 0 0 0 -26.1329,13.97561 157.42262,157.42262 0 0 0 -57.2334,121.349197 157.42262,157.42262 0 0 0 14.8807,66.679491 134.4472,134.4472 0 0 1 -34.1209,-89.392667 134.4472,134.4472 0 0 1 0.8764,-14.903214 208.7771,208.7771 0 0 0 -21.9801,92.802111 208.7771,208.7771 0 0 0 208.7761,208.776102 208.7771,208.7771 0 0 0 208.7781,-208.776102 208.7771,208.7771 0 0 0 -55.7263,-141.994188 145.82749,145.82749 0 0 1 10.6317,54.649216 145.82749,145.82749 0 0 1 -145.8275,145.82747 145.82749,145.82749 0 0 1 -145.8275,-145.82747 145.82749,145.82749 0 0 1 42.9056,-103.165556 z" /></g><text
       xml:space="preserve"
       style="font-style:normal;font-variant:normal;font-weight:normal;font-stretch:normal;font-size:340.367px;font-family:'Blacker Sans Display';-inkscape-font-specification:'Blacker Sans Display, Normal';font-variant-ligatures:normal;font-variant-caps:normal;font-variant-numeric:normal;font-variant-east-asian:normal;text-align:center;text-anchor:middle;fill:#004e96;fill-opacity:1;stroke:#6c6c6c;stroke-width:0"
       x="2739.5823"
       y="-7.8845434"
       id="text4967-6-8"><tspan
         sodipodi:role="line"
         id="tspan4965-1-4"
         style="font-style:normal;font-variant:normal;font-weight:normal;font-stretch:normal;font-size:340.367px;font-family:'Blacker Sans Display';-inkscape-font-specification:'Blacker Sans Display, Normal';font-variant-ligatures:normal;font-variant-caps:normal;font-variant-numeric:normal;font-variant-east-asian:normal;fill:#004e96;fill-opacity:1;stroke-width:0"
         x="2739.5823"
         y="-7.8845434">Samvida</tspan></text><text
       xml:space="preserve"
       style="font-style:normal;font-variant:normal;font-weight:300;font-stretch:normal;font-size:108.158px;font-family:'Blacker Sans Display';-inkscape-font-specification:'Blacker Sans Display, Light';font-variant-ligatures:normal;font-variant-caps:normal;font-variant-numeric:normal;font-variant-east-asian:normal;text-align:center;text-anchor:middle;fill:#0b7d5c;fill-opacity:1;stroke:#6c6c6c;stroke-width:0"
       x="2715.4883"
       y="138.99971"
       id="text4967-0-2-5"
       transform="scale(1.0150512,0.98517198)"><tspan
         sodipodi:role="line"
         id="tspan4965-6-9-0"
         style="font-style:normal;font-variant:normal;font-weight:300;font-stretch:normal;font-size:108.158px;font-family:'Blacker Sans Display';-inkscape-font-specification:'Blacker Sans Display, Light';font-variant-ligatures:normal;font-variant-caps:normal;font-variant-numeric:normal;font-variant-east-asian:normal;fill:#0b7d5c;fill-opacity:1;stroke-width:0"
         x="2715.4883"
         y="138.99971">Sua saúde em primeiro lugar</tspan></text></g></svg>
